<mxfile host="app.diagrams.net" agent="Mozilla/5.0 (Windows NT 10.0; Win64; x64) AppleWebKit/537.36 (KHTML, like Gecko) Chrome/138.0.0.0 YaBrowser/25.8.0.0 Safari/537.36" version="28.1.1">
  <diagram name="Страница — 1" id="d12NfoKXQhK9NhbswwIi">
    <mxGraphModel dx="1213" dy="751" grid="1" gridSize="10" guides="1" tooltips="1" connect="1" arrows="1" fold="1" page="1" pageScale="1" pageWidth="1169" pageHeight="827" math="0" shadow="0">
      <root>
        <mxCell id="0" />
        <mxCell id="1" parent="0" />
        <mxCell id="Zzc1djeQFkqtEjO8KbFS-18" style="edgeStyle=orthogonalEdgeStyle;rounded=0;orthogonalLoop=1;jettySize=auto;html=1;entryX=0;entryY=0.125;entryDx=0;entryDy=0;entryPerimeter=0;" edge="1" parent="1" source="Zzc1djeQFkqtEjO8KbFS-1" target="Zzc1djeQFkqtEjO8KbFS-8">
          <mxGeometry relative="1" as="geometry">
            <mxPoint x="390" y="100" as="targetPoint" />
          </mxGeometry>
        </mxCell>
        <mxCell id="Zzc1djeQFkqtEjO8KbFS-19" value="Обслуживание клиентов, &lt;br&gt;заведение договоров&amp;nbsp;" style="edgeLabel;html=1;align=center;verticalAlign=middle;resizable=0;points=[];" vertex="1" connectable="0" parent="Zzc1djeQFkqtEjO8KbFS-18">
          <mxGeometry x="-0.206" y="1" relative="1" as="geometry">
            <mxPoint x="8" y="15" as="offset" />
          </mxGeometry>
        </mxCell>
        <mxCell id="Zzc1djeQFkqtEjO8KbFS-1" value="Сотрудники&lt;br&gt;фронт-офиса&lt;div&gt;&lt;br/&gt;&lt;/div&gt;" style="shape=umlActor;verticalLabelPosition=bottom;verticalAlign=top;html=1;outlineConnect=0;" vertex="1" parent="1">
          <mxGeometry x="70" y="66" width="30" height="60" as="geometry" />
        </mxCell>
        <mxCell id="Zzc1djeQFkqtEjO8KbFS-20" style="edgeStyle=orthogonalEdgeStyle;rounded=0;orthogonalLoop=1;jettySize=auto;html=1;entryX=0.016;entryY=0.847;entryDx=0;entryDy=0;entryPerimeter=0;exitX=0.5;exitY=0.5;exitDx=0;exitDy=0;exitPerimeter=0;" edge="1" parent="1" source="Zzc1djeQFkqtEjO8KbFS-2" target="Zzc1djeQFkqtEjO8KbFS-8">
          <mxGeometry relative="1" as="geometry">
            <mxPoint x="390" y="360" as="targetPoint" />
          </mxGeometry>
        </mxCell>
        <mxCell id="Zzc1djeQFkqtEjO8KbFS-21" value="Расчет кредитных рисков" style="edgeLabel;html=1;align=center;verticalAlign=middle;resizable=0;points=[];" vertex="1" connectable="0" parent="Zzc1djeQFkqtEjO8KbFS-20">
          <mxGeometry x="-0.4056" relative="1" as="geometry">
            <mxPoint x="44" y="10" as="offset" />
          </mxGeometry>
        </mxCell>
        <mxCell id="Zzc1djeQFkqtEjO8KbFS-2" value="Менеджеры&lt;br&gt;по работе с&amp;nbsp;&lt;br&gt;кредитами" style="shape=umlActor;verticalLabelPosition=bottom;verticalAlign=top;html=1;outlineConnect=0;" vertex="1" parent="1">
          <mxGeometry x="70" y="328" width="30" height="60" as="geometry" />
        </mxCell>
        <mxCell id="Zzc1djeQFkqtEjO8KbFS-3" value="Сотрудники&amp;nbsp;&lt;br&gt;Кол-центра" style="shape=umlActor;verticalLabelPosition=bottom;verticalAlign=top;html=1;outlineConnect=0;" vertex="1" parent="1">
          <mxGeometry x="70" y="471" width="30" height="60" as="geometry" />
        </mxCell>
        <mxCell id="Zzc1djeQFkqtEjO8KbFS-5" value="Менеджеры&lt;br&gt;по работе с&amp;nbsp;&lt;br&gt;депозитами" style="shape=umlActor;verticalLabelPosition=bottom;verticalAlign=top;html=1;outlineConnect=0;" vertex="1" parent="1">
          <mxGeometry x="70" y="190" width="30" height="60" as="geometry" />
        </mxCell>
        <mxCell id="Zzc1djeQFkqtEjO8KbFS-8" value="&lt;font style=&quot;font-size: 21px;&quot;&gt;АБС&lt;/font&gt;" style="rounded=0;whiteSpace=wrap;html=1;" vertex="1" parent="1">
          <mxGeometry x="449" y="50" width="300" height="364" as="geometry" />
        </mxCell>
        <mxCell id="Zzc1djeQFkqtEjO8KbFS-41" style="edgeStyle=orthogonalEdgeStyle;rounded=0;orthogonalLoop=1;jettySize=auto;html=1;entryX=0.5;entryY=1;entryDx=0;entryDy=0;" edge="1" parent="1" source="Zzc1djeQFkqtEjO8KbFS-9" target="Zzc1djeQFkqtEjO8KbFS-8">
          <mxGeometry relative="1" as="geometry" />
        </mxCell>
        <mxCell id="Zzc1djeQFkqtEjO8KbFS-53" value="Передача заявок" style="edgeLabel;html=1;align=center;verticalAlign=middle;resizable=0;points=[];" vertex="1" connectable="0" parent="Zzc1djeQFkqtEjO8KbFS-41">
          <mxGeometry x="-0.0643" y="-3" relative="1" as="geometry">
            <mxPoint as="offset" />
          </mxGeometry>
        </mxCell>
        <mxCell id="Zzc1djeQFkqtEjO8KbFS-9" value="CRM" style="rounded=0;whiteSpace=wrap;html=1;" vertex="1" parent="1">
          <mxGeometry x="539" y="471" width="120" height="60" as="geometry" />
        </mxCell>
        <mxCell id="Zzc1djeQFkqtEjO8KbFS-10" value="" style="endArrow=classic;html=1;rounded=0;exitX=0.5;exitY=0.5;exitDx=0;exitDy=0;exitPerimeter=0;" edge="1" parent="1" source="Zzc1djeQFkqtEjO8KbFS-3" target="Zzc1djeQFkqtEjO8KbFS-9">
          <mxGeometry width="50" height="50" relative="1" as="geometry">
            <mxPoint x="90" y="521" as="sourcePoint" />
            <mxPoint x="140" y="471" as="targetPoint" />
          </mxGeometry>
        </mxCell>
        <mxCell id="Zzc1djeQFkqtEjO8KbFS-11" value="Обрабатка&amp;nbsp;звонков клиентов,&lt;br&gt;&amp;nbsp;создание заявок" style="edgeLabel;html=1;align=center;verticalAlign=middle;resizable=0;points=[];" vertex="1" connectable="0" parent="Zzc1djeQFkqtEjO8KbFS-10">
          <mxGeometry x="-0.3731" relative="1" as="geometry">
            <mxPoint x="43" y="19" as="offset" />
          </mxGeometry>
        </mxCell>
        <mxCell id="Zzc1djeQFkqtEjO8KbFS-14" value="" style="endArrow=classic;html=1;rounded=0;exitX=0.5;exitY=0.5;exitDx=0;exitDy=0;exitPerimeter=0;entryX=0;entryY=0.466;entryDx=0;entryDy=0;entryPerimeter=0;" edge="1" parent="1" source="Zzc1djeQFkqtEjO8KbFS-5" target="Zzc1djeQFkqtEjO8KbFS-8">
          <mxGeometry width="50" height="50" relative="1" as="geometry">
            <mxPoint x="190" y="240" as="sourcePoint" />
            <mxPoint x="454" y="217" as="targetPoint" />
          </mxGeometry>
        </mxCell>
        <mxCell id="Zzc1djeQFkqtEjO8KbFS-17" value="Просмотр заявок в АБС, расчет ставок" style="edgeLabel;html=1;align=center;verticalAlign=middle;resizable=0;points=[];" vertex="1" connectable="0" parent="Zzc1djeQFkqtEjO8KbFS-14">
          <mxGeometry x="-0.2962" y="-3" relative="1" as="geometry">
            <mxPoint x="38" y="9" as="offset" />
          </mxGeometry>
        </mxCell>
        <mxCell id="Zzc1djeQFkqtEjO8KbFS-24" style="edgeStyle=orthogonalEdgeStyle;rounded=0;orthogonalLoop=1;jettySize=auto;html=1;" edge="1" parent="1" source="Zzc1djeQFkqtEjO8KbFS-23" target="Zzc1djeQFkqtEjO8KbFS-8">
          <mxGeometry relative="1" as="geometry">
            <Array as="points">
              <mxPoint x="860" y="370" />
              <mxPoint x="860" y="232" />
            </Array>
          </mxGeometry>
        </mxCell>
        <mxCell id="Zzc1djeQFkqtEjO8KbFS-25" value="Поддержка" style="edgeLabel;html=1;align=center;verticalAlign=middle;resizable=0;points=[];" vertex="1" connectable="0" parent="Zzc1djeQFkqtEjO8KbFS-24">
          <mxGeometry x="-0.1594" relative="1" as="geometry">
            <mxPoint x="70" y="13" as="offset" />
          </mxGeometry>
        </mxCell>
        <mxCell id="Zzc1djeQFkqtEjO8KbFS-23" value="Сотрудники&lt;br&gt;IT департамента" style="shape=umlActor;verticalLabelPosition=bottom;verticalAlign=top;html=1;outlineConnect=0;" vertex="1" parent="1">
          <mxGeometry x="1000" y="340" width="30" height="60" as="geometry" />
        </mxCell>
        <mxCell id="Zzc1djeQFkqtEjO8KbFS-26" value="Модуль расчета&lt;br&gt;кредитных рисков" style="rounded=1;whiteSpace=wrap;html=1;" vertex="1" parent="1">
          <mxGeometry x="529" y="90" width="120" height="60" as="geometry" />
        </mxCell>
        <mxCell id="Zzc1djeQFkqtEjO8KbFS-27" value="Информация по&lt;div&gt;ставкам депозитов&lt;/div&gt;" style="rounded=1;whiteSpace=wrap;html=1;" vertex="1" parent="1">
          <mxGeometry x="539" y="290" width="120" height="60" as="geometry" />
        </mxCell>
        <mxCell id="Zzc1djeQFkqtEjO8KbFS-50" style="edgeStyle=orthogonalEdgeStyle;rounded=0;orthogonalLoop=1;jettySize=auto;html=1;entryX=0;entryY=0.5;entryDx=0;entryDy=0;" edge="1" parent="1" source="Zzc1djeQFkqtEjO8KbFS-29" target="Zzc1djeQFkqtEjO8KbFS-48">
          <mxGeometry relative="1" as="geometry" />
        </mxCell>
        <mxCell id="Zzc1djeQFkqtEjO8KbFS-51" value="Открытие счетов, платежи" style="edgeLabel;html=1;align=center;verticalAlign=middle;resizable=0;points=[];" vertex="1" connectable="0" parent="Zzc1djeQFkqtEjO8KbFS-50">
          <mxGeometry x="-0.2283" y="1" relative="1" as="geometry">
            <mxPoint x="23" y="7" as="offset" />
          </mxGeometry>
        </mxCell>
        <mxCell id="Zzc1djeQFkqtEjO8KbFS-29" value="Клиент&lt;br&gt;банка" style="shape=umlActor;verticalLabelPosition=bottom;verticalAlign=top;html=1;outlineConnect=0;" vertex="1" parent="1">
          <mxGeometry x="310" y="724" width="30" height="60" as="geometry" />
        </mxCell>
        <mxCell id="Zzc1djeQFkqtEjO8KbFS-32" value="СМС-шлюз" style="rounded=0;whiteSpace=wrap;html=1;" vertex="1" parent="1">
          <mxGeometry x="670" y="539" width="120" height="60" as="geometry" />
        </mxCell>
        <mxCell id="Zzc1djeQFkqtEjO8KbFS-33" value="" style="endArrow=classic;html=1;rounded=0;exitX=0.933;exitY=0.995;exitDx=0;exitDy=0;exitPerimeter=0;" edge="1" parent="1" source="Zzc1djeQFkqtEjO8KbFS-8" target="Zzc1djeQFkqtEjO8KbFS-32">
          <mxGeometry width="50" height="50" relative="1" as="geometry">
            <mxPoint x="760" y="410" as="sourcePoint" />
            <mxPoint x="810" y="360" as="targetPoint" />
          </mxGeometry>
        </mxCell>
        <mxCell id="Zzc1djeQFkqtEjO8KbFS-34" value="Передача СМС" style="edgeLabel;html=1;align=center;verticalAlign=middle;resizable=0;points=[];" vertex="1" connectable="0" parent="Zzc1djeQFkqtEjO8KbFS-33">
          <mxGeometry x="-0.1601" y="-2" relative="1" as="geometry">
            <mxPoint as="offset" />
          </mxGeometry>
        </mxCell>
        <mxCell id="Zzc1djeQFkqtEjO8KbFS-40" value="Сайт банка" style="rounded=0;whiteSpace=wrap;html=1;" vertex="1" parent="1">
          <mxGeometry x="670" y="631" width="120" height="60" as="geometry" />
        </mxCell>
        <mxCell id="Zzc1djeQFkqtEjO8KbFS-42" style="edgeStyle=orthogonalEdgeStyle;rounded=0;orthogonalLoop=1;jettySize=auto;html=1;exitX=0.5;exitY=0.5;exitDx=0;exitDy=0;exitPerimeter=0;entryX=1;entryY=0.5;entryDx=0;entryDy=0;" edge="1" parent="1" source="Zzc1djeQFkqtEjO8KbFS-23" target="Zzc1djeQFkqtEjO8KbFS-32">
          <mxGeometry relative="1" as="geometry">
            <mxPoint x="951" y="270" as="sourcePoint" />
            <mxPoint x="730" y="422" as="targetPoint" />
            <Array as="points">
              <mxPoint x="860" y="370" />
              <mxPoint x="860" y="569" />
            </Array>
          </mxGeometry>
        </mxCell>
        <mxCell id="Zzc1djeQFkqtEjO8KbFS-45" style="edgeStyle=orthogonalEdgeStyle;rounded=0;orthogonalLoop=1;jettySize=auto;html=1;entryX=0;entryY=0.5;entryDx=0;entryDy=0;exitX=0.5;exitY=0.5;exitDx=0;exitDy=0;exitPerimeter=0;" edge="1" parent="1" source="Zzc1djeQFkqtEjO8KbFS-44" target="Zzc1djeQFkqtEjO8KbFS-40">
          <mxGeometry relative="1" as="geometry" />
        </mxCell>
        <mxCell id="Zzc1djeQFkqtEjO8KbFS-52" value="Подготовка информационных сводок,&lt;br&gt;рекламы" style="edgeLabel;html=1;align=center;verticalAlign=middle;resizable=0;points=[];" vertex="1" connectable="0" parent="Zzc1djeQFkqtEjO8KbFS-45">
          <mxGeometry x="-0.1818" y="3" relative="1" as="geometry">
            <mxPoint x="-44" y="22" as="offset" />
          </mxGeometry>
        </mxCell>
        <mxCell id="Zzc1djeQFkqtEjO8KbFS-44" value="Сотрудники&lt;br&gt;маркетинга,&lt;br&gt;рекламы" style="shape=umlActor;verticalLabelPosition=bottom;verticalAlign=top;html=1;outlineConnect=0;" vertex="1" parent="1">
          <mxGeometry x="70" y="631" width="30" height="60" as="geometry" />
        </mxCell>
        <mxCell id="Zzc1djeQFkqtEjO8KbFS-46" style="edgeStyle=orthogonalEdgeStyle;rounded=0;orthogonalLoop=1;jettySize=auto;html=1;exitX=0.5;exitY=0.5;exitDx=0;exitDy=0;exitPerimeter=0;entryX=1;entryY=0.5;entryDx=0;entryDy=0;" edge="1" parent="1" source="Zzc1djeQFkqtEjO8KbFS-23" target="Zzc1djeQFkqtEjO8KbFS-40">
          <mxGeometry relative="1" as="geometry">
            <mxPoint x="1055" y="140" as="sourcePoint" />
            <mxPoint x="860" y="640" as="targetPoint" />
            <Array as="points">
              <mxPoint x="860" y="370" />
              <mxPoint x="860" y="661" />
            </Array>
          </mxGeometry>
        </mxCell>
        <mxCell id="Zzc1djeQFkqtEjO8KbFS-48" value="Интернет-банк" style="rounded=0;whiteSpace=wrap;html=1;" vertex="1" parent="1">
          <mxGeometry x="670" y="724" width="120" height="60" as="geometry" />
        </mxCell>
        <mxCell id="Zzc1djeQFkqtEjO8KbFS-49" style="edgeStyle=orthogonalEdgeStyle;rounded=0;orthogonalLoop=1;jettySize=auto;html=1;exitX=0.5;exitY=0.5;exitDx=0;exitDy=0;exitPerimeter=0;entryX=1;entryY=0.5;entryDx=0;entryDy=0;" edge="1" parent="1" source="Zzc1djeQFkqtEjO8KbFS-23" target="Zzc1djeQFkqtEjO8KbFS-48">
          <mxGeometry relative="1" as="geometry">
            <mxPoint x="985" y="80" as="sourcePoint" />
            <mxPoint x="790" y="677" as="targetPoint" />
            <Array as="points">
              <mxPoint x="860" y="370" />
              <mxPoint x="860" y="754" />
            </Array>
          </mxGeometry>
        </mxCell>
      </root>
    </mxGraphModel>
  </diagram>
</mxfile>
